<?xml version="1.0" encoding="utf-8"?>
<!-- Generator: Adobe Illustrator 27.9.6, SVG Export Plug-In . SVG Version: 9.03 Build 54986)  -->
<svg version="1.1" xmlns="http://www.w3.org/2000/svg" xmlns:xlink="http://www.w3.org/1999/xlink" x="0px" y="0px"
	 viewBox="0 0 24 24" style="enable-background:new 0 0 24 24;" xml:space="preserve">
<style type="text/css">
	.st0{display:none;}
	.st1{display:inline;fill:#212529;}
	.st2{display:inline;fill-rule:evenodd;clip-rule:evenodd;fill:#212529;}
	.st3{fill-rule:evenodd;clip-rule:evenodd;fill:none;stroke:#000000;stroke-miterlimit:10;}
	.st4{fill:none;stroke:#000000;stroke-linecap:round;stroke-miterlimit:10;}
</style>
<g id="Layer_1" class="st0">
	<path class="st1" d="M11.4,11.4c-0.3,0-0.5,0.2-0.5,0.5c0,0.3,0.2,0.5,0.5,0.5h7c0.3,0,0.5-0.2,0.5-0.5c0-0.3-0.2-0.5-0.5-0.5H11.4
		z"/>
	<path class="st1" d="M10.9,13.9c0-0.3,0.2-0.5,0.5-0.5h7c0.3,0,0.5,0.2,0.5,0.5c0,0.3-0.2,0.5-0.5,0.5h-7
		C11.1,14.4,10.9,14.2,10.9,13.9z"/>
	<path class="st1" d="M11.4,15.4c-0.3,0-0.5,0.2-0.5,0.5c0,0.3,0.2,0.5,0.5,0.5h4c0.3,0,0.5-0.2,0.5-0.5c0-0.3-0.2-0.5-0.5-0.5H11.4
		z"/>
	<path class="st2" d="M14.6,3c1,1,1.6,2.2,1.9,3.5c1.2,0.3,2.3,1,3.2,1.9c2.3,2.3,2.7,5.7,1.4,8.4l1,3.6c0,0.2,0,0.4-0.1,0.5
		c-0.1,0.1-0.3,0.2-0.5,0.1l-3.6-1c-2.7,1.4-6.2,0.9-8.4-1.4c-1-1-1.6-2.2-1.9-3.5C7,15.1,6.6,15,6.1,14.8l-3.6,1
		c-0.2,0-0.4,0-0.5-0.1s-0.2-0.3-0.1-0.5l1-3.6C1.5,8.7,2,5.3,4.2,3C7.1,0.2,11.7,0.2,14.6,3z M13.9,3.8c0.7,0.7,1.3,1.6,1.5,2.5
		c-2.1-0.2-4.4,0.5-6,2.1c-1.6,1.6-2.3,3.7-2.1,5.8C7,14.1,6.8,14,6.5,13.8c-0.1-0.1-0.3-0.1-0.4-0.1l-3,0.8l0.8-3
		c0-0.1,0-0.3-0.1-0.4C2.6,8.8,2.9,5.8,4.9,3.8C7.4,1.3,11.4,1.3,13.9,3.8z M10.1,9.1c-2.5,2.5-2.5,6.5,0,8.9c2,2,5,2.4,7.4,1.1
		c0.1-0.1,0.3-0.1,0.4-0.1l3,0.8l-0.8-3c0-0.1,0-0.3,0.1-0.4c1.2-2.4,0.9-5.4-1.1-7.4C16.6,6.6,12.6,6.6,10.1,9.1z"/>
</g>
<g id="Layer_2">
</g>
<g id="Layer_3">
	<g>
		<circle class="st3" cx="12" cy="12" r="7.5"/>
		<g>
			<line class="st4" x1="6.9" y1="12" x2="16.6" y2="12"/>
			<polyline class="st4" points="12.7,7.6 17.1,12 12.7,16.4 			"/>
		</g>
	</g>
</g>
</svg>
